<svg xmlns="http://www.w3.org/2000/svg" xmlns:xlink="http://www.w3.org/1999/xlink" width="259" height="55" viewBox="0 0 259 55">
    <defs>
        <path id="36rrgq3nna" d="M0 0.364L30.486 0.364 30.486 38.726 0 38.726z"/>
        <path id="4kivvlw5bc" d="M0 54.641L258.648 54.641 258.648 0 0 0z"/>
    </defs>
    <g fill="none" fill-rule="evenodd">
        <g>
            <g transform="translate(-165 -58) translate(165 58)">
                <path fill="#FCC200" d="M54.8 27.4c0-3.949-.842-7.698-2.345-11.09-1.069.564-2.11 1.17-3.12 1.822 1.204 2.849 1.87 5.98 1.87 9.268 0 6.505-2.611 12.396-6.84 16.691 2.229-5.695 2.485-11.994.748-17.839-.979.832-2.018 1.594-3.108 2.283 1.173 4.922.752 10.136-1.238 14.837-.335-2.626-2.571-4.656-5.287-4.656-2.947 0-5.335 2.388-5.335 5.335 0 2.946 2.388 5.335 5.335 5.335.59 0 1.155-.105 1.685-.283-2.127.957-4.416 1.617-6.82 1.914-.031.663-.049 1.33-.049 2 0 .544.014 1.085.035 1.624C44.085 53.178 54.8 41.541 54.8 27.4"/>
                <path fill="#3FA435" d="M49.53 11.251C44.546 4.433 36.493 0 27.4 0 18.304 0 10.25 4.435 5.264 11.256c1.018.644 2.064 1.245 3.138 1.8 1.353-1.79 2.954-3.382 4.75-4.727 5.946-1.36 12.35-.428 17.782 2.917.675-.997 1.392-1.964 2.144-2.901-3.56-2.248-7.497-3.58-11.498-4.032 1.862-.468 3.811-.719 5.818-.719 6.422 0 12.247 2.546 16.528 6.679-4.995 2.427-10.6 3.792-16.528 3.792-3.267 0-6.434-.426-9.459-1.206-1.214.791-2.324 1.728-3.303 2.79 4.021 1.3 8.309 2.005 12.762 2.005 8.14 0 15.727-2.352 22.131-6.403"/>
                <g transform="translate(0 15.909)">
                    <mask id="rxigjtdihb" fill="#fff">
                        <use xlink:href="#36rrgq3nna"/>
                    </mask>
                    <path fill="#0075BE" d="M30.486 7.434c-1.02.067-2.049.106-3.086.106-9.197 0-17.777-2.632-25.038-7.176C.847 3.764 0 7.528 0 11.49 0 25.636 10.723 37.267 24.48 38.726c.022-.54.035-1.08.035-1.624 0-.668-.017-1.332-.049-1.992C12.705 33.664 3.594 23.645 3.594 11.49c0-2.03.256-3.999.735-5.88 5.973 3.045 12.624 4.949 19.67 5.414-1.987 3.63-3.577 7.508-4.702 11.58-2.991-2.183-5.068-5.545-5.547-9.403-1.297-.746-2.528-1.592-3.68-2.533-.014.272-.024.546-.024.823 0 7.612 4.902 14.08 11.72 16.418 1.379-7.536 4.413-14.492 8.72-20.475" mask="url(#rxigjtdihb)"/>
                </g>
                <path fill="#1D1D1B" d="M68.272 18.231L67.322 16.13 67.322 24.411 65.766 24.411 65.766 13.359 67.509 13.359 71.074 19.741 72.008 21.874 72.008 13.359 73.565 13.359 73.565 24.411 71.728 24.411zM79.137 15.85l-1.37 3.767h2.725l-1.355-3.768zm-4.794 8.561l4.016-11.053h1.557l4.016 11.053h-1.697l-1.199-3.316h-3.798l-1.199 3.316h-1.696zM91.45 23.602c-.887.591-1.992.918-3.082.918-2.693 0-4.436-1.4-4.436-4.639v-1.79c0-3.347 1.961-4.842 4.498-4.842.919 0 1.822.219 2.756.608l-.327 1.432c-.84-.343-1.697-.545-2.46-.545-1.634 0-2.91.919-2.91 3.425v1.65c0 2.289 1.338 3.222 2.864 3.222.934 0 1.868-.358 2.724-.95l.374 1.51z"/>
                <mask id="jh7m2cr4pd" fill="#fff">
                    <use xlink:href="#4kivvlw5bc"/>
                </mask>
                <path fill="#1D1D1B" d="M92.664 24.411L94.221 24.411 94.221 13.359 92.664 13.359zM97.147 19.57c0 2.148 1.106 3.425 2.927 3.425 1.822 0 2.927-1.277 2.927-3.425V18.2c0-2.148-1.105-3.425-2.927-3.425-1.821 0-2.927 1.277-2.927 3.425v1.37zm7.442-.047c0 2.864-1.401 4.997-4.515 4.997-3.113 0-4.515-2.133-4.515-4.997v-1.277c0-2.864 1.402-4.996 4.515-4.996 3.114 0 4.515 2.132 4.515 4.996v1.277zM108.308 18.231L107.359 16.13 107.359 24.411 105.802 24.411 105.802 13.359 107.546 13.359 111.111 19.741 112.044 21.874 112.044 13.359 113.601 13.359 113.601 24.411 111.764 24.411zM119.174 15.85l-1.37 3.767h2.724l-1.354-3.768zm-4.795 8.561l4.016-11.053h1.557l4.017 11.053h-1.697l-1.2-3.316h-3.797l-1.199 3.316h-1.697zM131.036 24.411L124.746 24.411 124.746 13.359 126.303 13.359 126.303 22.933 131.036 22.933zM134.475 18.231L133.526 16.13 133.526 24.411 131.969 24.411 131.969 13.359 133.713 13.359 137.277 19.741 138.212 21.874 138.212 13.359 139.768 13.359 139.768 24.411 137.931 24.411zM141.278 24.411L142.835 24.411 142.835 13.359 141.278 13.359zM155.443 24.411L149.155 24.411 149.155 13.359 150.711 13.359 150.711 22.933 155.443 22.933zM160.565 15.85l-1.37 3.767h2.724l-1.354-3.768zm-4.795 8.561l4.016-11.053h1.557l4.016 11.053h-1.697l-1.198-3.316h-3.798l-1.2 3.316h-1.696zM167.694 19.585v3.316c.514.094 1.027.14 1.62.14 1.276 0 2.583-.28 2.583-1.65 0-.965-.731-1.806-1.93-1.806h-2.273zm0-1.478h2.148c1.246 0 1.806-.732 1.806-1.635 0-.919-.56-1.634-1.79-1.634h-2.164v3.269zm2.164-4.749c2.18 0 3.347 1.355 3.347 3.114 0 .918-.53 1.837-1.308 2.35.95.546 1.557 1.495 1.557 2.6 0 2.413-2.024 3.098-4.156 3.098-1.121 0-2.258-.187-3.16-.358V13.358h3.72zM175.96 19.57c0 2.148 1.105 3.425 2.926 3.425 1.821 0 2.926-1.277 2.926-3.425V18.2c0-2.148-1.105-3.425-2.926-3.425-1.821 0-2.927 1.277-2.927 3.425v1.37zm7.44-.047c0 2.864-1.4 4.997-4.514 4.997-3.114 0-4.515-2.133-4.515-4.997v-1.277c0-2.864 1.401-4.996 4.515-4.996 3.113 0 4.514 2.132 4.514 4.996v1.277zM186.171 18.496h1.759c1.526 0 2.288-.7 2.288-1.79 0-1.635-1.37-1.977-2.77-1.977-.436 0-.872.046-1.277.108v3.659zm-1.557-4.842c.966-.264 1.946-.404 2.85-.404 2.412 0 4.311.918 4.311 3.486 0 1.168-.513 2.164-1.557 2.725.187.233.358.514.498.856l1.697 4.094h-1.79l-1.432-3.455c-.311-.763-.623-.981-1.65-.981h-1.37v4.436h-1.557V13.654zM197.472 15.85l-1.37 3.767h2.725l-1.355-3.768zm-4.794 8.561l4.016-11.053h1.557l4.016 11.053h-1.697l-1.199-3.316h-3.798l-1.199 3.316h-1.696zM200.943 14.838L200.943 13.359 209.35 13.359 209.35 14.838 205.925 14.838 205.925 24.411 204.368 24.411 204.368 14.838zM211.062 19.57c0 2.148 1.105 3.425 2.927 3.425 1.82 0 2.926-1.277 2.926-3.425V18.2c0-2.148-1.105-3.425-2.926-3.425-1.822 0-2.927 1.277-2.927 3.425v1.37zm7.44-.047c0 2.864-1.4 4.997-4.513 4.997-3.114 0-4.515-2.133-4.515-4.997v-1.277c0-2.864 1.4-4.996 4.515-4.996 3.113 0 4.514 2.132 4.514 4.996v1.277zM221.273 18.496h1.759c1.526 0 2.288-.7 2.288-1.79 0-1.635-1.37-1.977-2.77-1.977-.436 0-.872.046-1.277.108v3.659zm-1.557-4.842c.966-.264 1.946-.404 2.85-.404 2.412 0 4.311.918 4.311 3.486 0 1.168-.513 2.164-1.557 2.725.187.233.358.514.498.856l1.697 4.094h-1.79l-1.432-3.455c-.311-.763-.623-.981-1.65-.981h-1.37v4.436h-1.557V13.654zM228.511 24.411L230.068 24.411 230.068 13.359 228.511 13.359zM231.189 22.699c.25.202.654.342 1.027.342.545 0 1.059-.311 1.059-1.182v-8.5h1.557v8.561c0 1.729-1.106 2.6-2.414 2.6-.435 0-.886-.093-1.338-.296l.109-1.525zM245.93 14.838L241.104 14.838 241.104 13.359 247.814 13.359 247.814 14.838 242.708 22.932 248.452 22.932 248.452 24.411 240.824 24.411 240.824 22.932zM253.854 15.85l-1.37 3.767h2.724l-1.354-3.768zm-4.795 8.561l4.016-11.053h1.557l4.016 11.053h-1.697l-1.198-3.316h-3.798l-1.2 3.316h-1.696zM70.669 30.33L65.844 30.33 65.844 28.852 72.553 28.852 72.553 30.33 67.447 38.425 73.191 38.425 73.191 39.904 65.563 39.904 65.563 38.425zM75.962 38.425h2.008c2.07 0 3.036-1.837 3.036-3.907 0-2.74-1.199-4.281-3.83-4.281-.374 0-.778.031-1.214.094v8.094zm-1.557 1.48V29.022c.95-.187 1.993-.28 2.771-.28 3.612 0 5.386 2.039 5.386 5.775 0 2.896-1.479 5.386-4.592 5.386h-3.565zM85.255 33.989h1.76c1.525 0 2.288-.701 2.288-1.79 0-1.635-1.37-1.977-2.771-1.977-.437 0-.872.046-1.277.108v3.659zm-1.557-4.842c.966-.264 1.946-.404 2.85-.404 2.412 0 4.311.918 4.311 3.486 0 1.168-.513 2.164-1.556 2.725.186.233.357.513.498.856l1.696 4.094h-1.79l-1.432-3.455c-.311-.763-.623-.982-1.65-.982h-1.37v4.437h-1.557V29.147zM96.556 31.342l-1.37 3.768h2.725l-1.355-3.768zm-4.794 8.562l4.016-11.053h1.557l4.016 11.053h-1.697l-1.199-3.316h-3.798l-1.199 3.316h-1.696zM103.951 39.904L99.81 28.852 101.584 28.852 104.76 37.616 107.936 28.852 109.71 28.852 105.57 39.904zM109.6 38.192c.25.202.655.342 1.028.342.545 0 1.059-.311 1.059-1.183v-8.5h1.557v8.562c0 1.729-1.105 2.6-2.413 2.6-.436 0-.887-.093-1.339-.296l.109-1.525zM121.603 39.904L114.707 39.904 114.707 28.852 121.385 28.852 121.385 30.33 116.263 30.33 116.263 33.631 120.669 33.631 120.669 35.11 116.263 35.11 116.263 38.425 121.603 38.425zM123.533 41.461L122.085 41.461 123.331 38.348 125.074 38.348zM131.985 35.063c0 2.148 1.105 3.425 2.927 3.425 1.821 0 2.926-1.277 2.926-3.425v-1.37c0-2.148-1.105-3.425-2.926-3.425-1.822 0-2.927 1.277-2.927 3.425v1.37zm7.441-.047c0 2.864-1.4 4.997-4.514 4.997-3.114 0-4.515-2.133-4.515-4.997V33.74c0-2.864 1.401-4.996 4.515-4.996 3.113 0 4.514 2.132 4.514 4.996v1.277zM140.64 39.904V28.852h1.557v5.012h1.37l3.004-5.012h1.775l-3.082 5.184c.638.233 1.043.747 1.432 1.665l1.759 4.203h-1.697l-1.65-3.751c-.28-.639-.53-.81-1.261-.81h-1.65v4.561h-1.557zM150.213 35.063c0 2.148 1.106 3.425 2.927 3.425 1.822 0 2.927-1.277 2.927-3.425v-1.37c0-2.148-1.105-3.425-2.927-3.425-1.821 0-2.927 1.277-2.927 3.425v1.37zm7.442-.047c0 2.864-1.401 4.997-4.515 4.997-3.113 0-4.515-2.133-4.515-4.997V33.74c0-2.864 1.402-4.996 4.515-4.996 3.114 0 4.515 2.132 4.515 4.996v1.277zM165.157 39.904L158.868 39.904 158.868 28.852 160.425 28.852 160.425 38.425 165.157 38.425zM165.702 38.192c.25.202.654.342 1.027.342.545 0 1.059-.311 1.059-1.183v-8.5h1.557v8.562c0 1.729-1.105 2.6-2.413 2.6-.436 0-.887-.093-1.339-.296l.109-1.525zM177.859 39.904L170.963 39.904 170.963 28.852 177.642 28.852 177.642 30.33 172.52 30.33 172.52 33.631 176.926 33.631 176.926 35.11 172.52 35.11 172.52 38.425 177.859 38.425zM184.288 39.904L185.845 39.904 185.845 28.852 184.288 28.852zM190.016 33.724L189.067 31.622 189.067 39.904 187.51 39.904 187.51 28.852 189.254 28.852 192.818 35.234 193.752 37.367 193.752 28.852 195.309 28.852 195.309 39.904 193.472 39.904zM201.816 39.904L201.816 28.852 203.373 28.852 203.373 33.709 208.167 33.709 208.167 28.852 209.724 28.852 209.724 39.904 208.167 39.904 208.167 35.187 203.373 35.187 203.373 39.904zM212.821 33.989h1.759c1.526 0 2.288-.701 2.288-1.79 0-1.635-1.37-1.977-2.77-1.977-.436 0-.872.046-1.277.108v3.659zm-1.557-4.842c.966-.264 1.946-.404 2.85-.404 2.412 0 4.311.918 4.311 3.486 0 1.168-.513 2.164-1.557 2.725.187.233.359.513.498.856l1.697 4.094h-1.79l-1.432-3.455c-.311-.763-.623-.982-1.65-.982h-1.37v4.437h-1.557V29.147zM224.278 31.342l-1.37 3.768h2.724l-1.354-3.768zm-4.795 8.562l4.016-11.053h1.557l4.017 11.053h-1.697l-1.2-3.316h-3.797l-1.199 3.316h-1.697zM232.512 33.724L231.563 31.622 231.563 39.904 230.006 39.904 230.006 28.852 231.75 28.852 235.314 35.234 236.248 37.367 236.248 28.852 237.805 28.852 237.805 39.904 235.968 39.904zM240.763 35.063c0 2.148 1.105 3.425 2.927 3.425 1.82 0 2.926-1.277 2.926-3.425v-1.37c0-2.148-1.105-3.425-2.926-3.425-1.822 0-2.927 1.277-2.927 3.425v1.37zm7.44-.047c0 2.864-1.4 4.997-4.513 4.997-3.114 0-4.515-2.133-4.515-4.997V33.74c0-2.864 1.4-4.996 4.515-4.996 3.113 0 4.514 2.132 4.514 4.996v1.277z" mask="url(#jh7m2cr4pd)"/>
            </g>
        </g>
    </g>
</svg>
